<svg width="146" height="146" viewBox="0 0 146 146" fill="none" xmlns="http://www.w3.org/2000/svg">
<path d="M65.5388 27.4164C60.3732 20.192 57.5367 16.2072 59.3607 4.01942C59.4289 3.41189 59.9001 2.9731 60.4413 2.8368C64.6288 1.92496 68.4434 1.0809 72.6972 0.136626C72.8998 0.102733 73.1364 0.102733 73.3386 0.136626L85.5603 2.8368C86.1678 2.97128 86.6066 3.51211 86.6748 4.08575C88.4645 16.2396 85.6284 20.1902 80.4628 27.4164C80.0918 27.8894 79.7875 28.2262 79.1118 28.2262L76.8504 28.2601C79.1796 31.367 82.4891 32.4475 84.1769 36.4645C85.3595 39.3348 85.3252 42.508 84.2107 45.4108L144.916 70.9347C145.488 71.1049 145.893 71.6457 145.893 72.2872V144.471C145.893 145.247 145.252 145.888 144.476 145.888H1.52377C0.747868 145.888 0.106445 145.247 0.106445 144.471V72.2879C0.106445 71.6804 0.511343 71.1395 1.08498 70.9369L61.183 44.7716C60.8462 43.0839 60.7099 38.5254 62.2293 37.6474C63.5121 36.9379 64.6605 37.8501 66.1121 40.1792C66.4831 40.7868 66.9219 41.4282 67.4292 42.0357L71.1775 40.4158C71.5824 40.2474 71.9873 40.2813 72.3601 40.4496L73.8795 41.0572C73.7111 39.9766 73.0354 38.7958 71.9891 38.2889C68.2084 36.4991 66.5869 32.211 67.4988 28.2619C66.4831 28.2604 66.2141 28.3286 65.5388 27.4164ZM139.681 77.8584V138.901C139.681 139.677 139.039 140.318 138.229 140.318C94.7428 140.318 51.2566 140.318 7.77181 140.318C6.96201 140.318 6.35448 139.677 6.35448 138.901V77.8584C6.35448 77.0825 6.96201 76.4411 7.77181 76.4411H138.229C139.039 76.4396 139.681 77.0811 139.681 77.8584ZM136.81 137.449V79.31H119.896V137.449H136.81ZM117.06 79.31H101.731V137.449H117.06V79.31ZM98.8621 79.31H83.5336V137.449H98.8621V79.31ZM80.6632 79.31H65.3347V137.449H80.6632V79.31ZM62.4658 79.31H47.1373V137.449H62.4658V79.31ZM44.3008 79.31H28.9723V137.449H44.3008V79.31ZM26.1034 79.31H9.18913V137.449H26.1037L26.1034 79.31ZM82.8922 47.9448C77.8286 55.5078 66.3829 55.3394 62.1615 47.4379L8.37897 70.8687H137.385L82.8922 47.9448ZM71.7508 43.2861L69.8604 44.0959C71.0088 44.6692 71.9191 44.6353 72.9334 43.7592L71.7508 43.2861ZM80.1917 46.8303L75.7013 44.94C72.7304 49.0932 67.9696 47.2352 65.2356 43.8594C65.1674 43.8933 63.9185 42.0354 63.8183 41.867C63.8522 42.8131 63.8183 43.5208 64.0548 44.4669C65.8417 51.4566 75.6999 52.84 80.1917 46.8303ZM76.7141 42.2722L81.5755 44.2985C82.3852 42.1035 82.4195 39.7404 81.5073 37.5454C80.0561 33.9997 75.6321 32.3455 73.5052 28.2604H70.4322C69.5204 31.0288 70.4322 34.3722 73.2344 35.7213C75.5997 36.8376 77.017 39.6723 76.7141 42.2722ZM143.023 143.02V73.7052H2.97681V143.02H143.023ZM61.6899 10.0969L80.0233 23.062C81.3404 21.1716 82.3867 19.3818 83.1302 17.4572L64.8292 4.79641L62.027 5.40394C61.8244 7.1602 61.6899 8.712 61.6899 10.0969ZM78.368 25.3915L61.925 13.7771C62.6003 18.2674 64.6594 21.2722 67.5975 25.3915H78.368ZM68.61 3.95127L83.9385 14.5533C84.4116 12.0879 84.4779 9.21931 83.9724 5.40431L72.9997 3.00699L68.61 3.95127Z" fill="#002A54"/>
</svg>
