<svg width="119" height="119" viewBox="0 0 119 119" fill="none" xmlns="http://www.w3.org/2000/svg">
<g clip-path="url(#clip0_0_183)">
<path d="M118.02 33.9899L60.5036 0.273137C59.8986 -0.079912 59.1549 -0.0917655 58.5422 0.247338L1.02545 31.9808C0.392793 32.3278 0 32.9942 0 33.7161V117.016C0 118.113 0.888549 118.999 1.98326 118.999H11.9C12.9947 118.999 13.8833 118.113 13.8833 117.016V47.5996H105.117V117.016C105.117 118.113 106.003 119 107.1 119H117.017C118.113 119 119 118.113 119 117.016V35.6996C119 34.9953 118.627 34.3448 118.02 33.9899ZM115.033 115.033H109.083V45.6161C109.083 44.5214 108.197 43.6328 107.1 43.6328H11.9C10.8053 43.6328 9.91675 44.5214 9.91675 45.6161V115.033H3.96674V34.8863L59.4703 4.26359L115.033 36.8359V115.033Z" fill="#002A54"/>
<path d="M99.167 91.2328H75.367C74.2702 91.2328 73.3838 92.1192 73.3838 93.216V117.016C73.3838 118.113 74.2702 118.999 75.367 118.999H99.167C100.264 118.999 101.15 118.113 101.15 117.016V93.216C101.15 92.1192 100.264 91.2328 99.167 91.2328ZM97.1836 115.033H77.3503V95.1995H97.1836V115.033Z" fill="#002A54"/>
<path d="M89.25 93.2161V99.1661H85.2833V93.2161H81.3165V101.149C81.3165 102.246 82.203 103.133 83.2998 103.133H91.233C92.3298 103.133 93.2163 102.246 93.2163 101.149V93.2161H89.25Z" fill="#002A54"/>
<path d="M75.3663 91.2328H51.5663C50.4716 91.2328 49.583 92.1192 49.583 93.216V117.016C49.583 118.113 50.4716 118.999 51.5663 118.999H75.3663C76.4631 118.999 77.3495 118.113 77.3495 117.016V93.216C77.3495 92.1192 76.4631 91.2328 75.3663 91.2328ZM73.3828 115.033H53.5495V95.1995H73.3828V115.033Z" fill="#002A54"/>
<path d="M65.45 93.2161V99.1661H61.4832V93.2161H57.5165V101.149C57.5165 102.246 58.405 103.133 59.4997 103.133H67.433C68.5298 103.133 69.4162 102.246 69.4162 101.149V93.2161H65.45Z" fill="#002A54"/>
<path d="M99.167 67.4327H75.367C74.2702 67.4327 73.3838 68.3192 73.3838 69.416V93.216C73.3838 94.3128 74.2702 95.1993 75.367 95.1993H99.167C100.264 95.1993 101.15 94.3128 101.15 93.216V69.416C101.15 68.3192 100.264 67.4327 99.167 67.4327ZM97.1836 91.2327H77.3503V71.3995H97.1836V91.2327Z" fill="#002A54"/>
<path d="M89.25 69.416V75.366H85.2833V69.416H81.3165V77.3493C81.3165 78.4461 82.203 79.3325 83.2998 79.3325H91.233C92.3298 79.3325 93.2163 78.4461 93.2163 77.3493V69.416H89.25Z" fill="#002A54"/>
<path d="M107.1 59.4995H11.9004V63.4663H107.1V59.4995Z" fill="#002A54"/>
<path d="M107.1 51.566H11.9004V55.5328H107.1V51.566Z" fill="#002A54"/>
<path d="M69.4171 27.766H49.5838C48.4891 27.766 47.6006 28.6545 47.6006 29.7492V37.6825C47.6006 38.7772 48.4891 39.6658 49.5838 39.6658H69.4171C70.5139 39.6658 71.4004 38.7772 71.4004 37.6825V29.7492C71.4004 28.6545 70.5139 27.766 69.4171 27.766ZM67.4336 35.6995H51.5669V31.7327H67.4336V35.6995Z" fill="#002A54"/>
</g>
<defs>
<clipPath id="clip0_0_183">
<rect width="119" height="119" fill="white"/>
</clipPath>
</defs>
</svg>
