<svg width="24" height="24" viewBox="0 0 24 24" fill="none" xmlns="http://www.w3.org/2000/svg">
<g clip-path="url(#clip0_1_400)">
<path d="M20.447 19.452H16.893V13.883C16.893 12.555 16.866 10.846 15.041 10.846C13.188 10.846 12.905 12.291 12.905 13.785V19.452H9.351V8H12.765V9.561H12.811C13.288 8.661 14.448 7.711 16.181 7.711C19.782 7.711 20.448 10.081 20.448 13.166L20.447 19.452ZM5.337 6.433C4.193 6.433 3.274 5.507 3.274 4.368C3.274 3.23 4.194 2.305 5.337 2.305C6.477 2.305 7.401 3.23 7.401 4.368C7.401 5.507 6.476 6.433 5.337 6.433ZM7.119 19.452H3.555V8H7.119V19.452ZM22.225 -1H1.771C0.792 -1 0 -0.226 0 0.729V21.271C0 22.227 0.792 23 1.771 23H22.222C23.2 23 24 22.227 24 21.271V0.729C24 -0.226 23.2 -1 22.222 -1H22.225Z" fill="white"/>
</g>
<defs>
<clipPath id="clip0_1_400">
<rect width="24" height="24" fill="white"/>
</clipPath>
</defs>
</svg>
