<svg width="171" height="138" viewBox="0 0 171 138" fill="none" xmlns="http://www.w3.org/2000/svg">
<g clip-path="url(#clip0_0_219)">
<path d="M72.1406 89.9062H8.01562C6.54075 89.9062 5.34375 88.7093 5.34375 87.2344C5.34375 85.7595 6.54075 84.5625 8.01562 84.5625H69.4688V4.40625H8.01562C6.54075 4.40625 5.34375 3.20925 5.34375 1.73438C5.34375 0.2595 6.54075 -0.9375 8.01562 -0.9375H72.1406C73.6155 -0.9375 74.8125 0.2595 74.8125 1.73438V87.2344C74.8125 88.7093 73.6155 89.9062 72.1406 89.9062Z" fill="#002A54"/>
<path d="M58.7812 79.2188H56.1094C54.6345 79.2188 53.4375 78.0218 53.4375 76.5469V12.4219C53.4375 10.947 54.6345 9.75 56.1094 9.75H58.7812C60.2561 9.75 61.4531 10.947 61.4531 12.4219C61.4531 13.8967 60.2561 15.0938 58.7812 15.0938V73.875C60.2561 73.875 61.4531 75.072 61.4531 76.5469C61.4531 78.0218 60.2561 79.2188 58.7812 79.2188Z" fill="#002A54"/>
<path d="M42.75 79.2188H40.0781C38.6033 79.2188 37.4062 78.0218 37.4062 76.5469V12.4219C37.4062 10.947 38.6033 9.75 40.0781 9.75H42.75C44.2249 9.75 45.4219 10.947 45.4219 12.4219C45.4219 13.8967 44.2249 15.0938 42.75 15.0938V73.875C44.2249 73.875 45.4219 75.072 45.4219 76.5469C45.4219 78.0218 44.2249 79.2188 42.75 79.2188Z" fill="#002A54"/>
<path d="M26.7188 79.2188H24.0469C22.572 79.2188 21.375 78.0218 21.375 76.5469V12.4219C21.375 10.947 22.572 9.75 24.0469 9.75H26.7188C28.1936 9.75 29.3906 10.947 29.3906 12.4219C29.3906 13.8967 28.1936 15.0938 26.7188 15.0938V73.875C28.1936 73.875 29.3906 75.072 29.3906 76.5469C29.3906 78.0218 28.1936 79.2188 26.7188 79.2188Z" fill="#002A54"/>
<path d="M10.6875 79.2188H8.01562C6.54075 79.2188 5.34375 78.0218 5.34375 76.5469V12.4219C5.34375 10.947 6.54075 9.75 8.01562 9.75H10.6875C12.1624 9.75 13.3594 10.947 13.3594 12.4219C13.3594 13.8967 12.1624 15.0938 10.6875 15.0938V73.875C12.1624 73.875 13.3594 75.072 13.3594 76.5469C13.3594 78.0218 12.1624 79.2188 10.6875 79.2188Z" fill="#002A54"/>
<path d="M34.7344 119.297C30.3151 119.297 26.7188 115.701 26.7188 111.281C26.7188 106.862 30.3151 103.266 34.7344 103.266C39.1537 103.266 42.75 106.862 42.75 111.281C42.75 115.701 39.1537 119.297 34.7344 119.297ZM34.7344 108.609C33.2648 108.609 32.0625 109.806 32.0625 111.281C32.0625 112.756 33.2648 113.953 34.7344 113.953C36.2039 113.953 37.4062 112.756 37.4062 111.281C37.4062 109.806 36.2039 108.609 34.7344 108.609Z" fill="#002A54"/>
<path d="M56.1094 119.297C51.6901 119.297 48.0938 115.701 48.0938 111.281C48.0938 106.862 51.6901 103.266 56.1094 103.266C60.5287 103.266 64.125 106.862 64.125 111.281C64.125 115.701 60.5287 119.297 56.1094 119.297ZM56.1094 108.609C54.6398 108.609 53.4375 109.806 53.4375 111.281C53.4375 112.756 54.6398 113.953 56.1094 113.953C57.5789 113.953 58.7812 112.756 58.7812 111.281C58.7812 109.806 57.5789 108.609 56.1094 108.609Z" fill="#002A54"/>
<path d="M77.4844 100.594H8.01562C6.54075 100.594 5.34375 99.3967 5.34375 97.9219C5.34375 96.447 6.54075 95.25 8.01562 95.25H77.4844C78.9593 95.25 80.1562 96.447 80.1562 97.9219C80.1562 99.3967 78.9593 100.594 77.4844 100.594Z" fill="#002A54"/>
<path d="M77.4844 103.266C76.0095 103.266 74.8125 102.069 74.8125 100.594V95.25C74.8125 93.7751 76.0095 92.5781 77.4844 92.5781C78.9592 92.5781 80.1562 93.7751 80.1562 95.25V100.594C80.1562 102.069 78.9592 103.266 77.4844 103.266Z" fill="#002A54"/>
<path d="M162.984 89.9062H93.5156C92.0408 89.9062 90.8438 88.7093 90.8438 87.2344V1.73438C90.8438 0.2595 92.0408 -0.9375 93.5156 -0.9375H162.984C164.459 -0.9375 165.656 0.2595 165.656 1.73438C165.656 3.20925 164.459 4.40625 162.984 4.40625H96.1875V84.5625H162.984C164.459 84.5625 165.656 85.7595 165.656 87.2344C165.656 88.7093 164.459 89.9062 162.984 89.9062Z" fill="#002A54"/>
<path d="M154.969 79.2188H152.297C150.822 79.2188 149.625 78.0218 149.625 76.5469V12.4219C149.625 10.947 150.822 9.75 152.297 9.75H154.969C156.444 9.75 157.641 10.947 157.641 12.4219C157.641 13.8967 156.444 15.0938 154.969 15.0938V73.875C156.444 73.875 157.641 75.072 157.641 76.5469C157.641 78.0218 156.444 79.2188 154.969 79.2188Z" fill="#002A54"/>
<path d="M138.938 79.2188H136.266C134.791 79.2188 133.594 78.0218 133.594 76.5469V12.4219C133.594 10.947 134.791 9.75 136.266 9.75H138.938C140.412 9.75 141.609 10.947 141.609 12.4219C141.609 13.8967 140.412 15.0938 138.938 15.0938V73.875C140.412 73.875 141.609 75.072 141.609 76.5469C141.609 78.0218 140.412 79.2188 138.938 79.2188Z" fill="#002A54"/>
<path d="M122.906 79.2188H120.234C118.76 79.2188 117.562 78.0218 117.562 76.5469V12.4219C117.562 10.947 118.76 9.75 120.234 9.75H122.906C124.381 9.75 125.578 10.947 125.578 12.4219C125.578 13.8967 124.381 15.0938 122.906 15.0938V73.875C124.381 73.875 125.578 75.072 125.578 76.5469C125.578 78.0218 124.381 79.2188 122.906 79.2188Z" fill="#002A54"/>
<path d="M106.875 79.2188H104.203C102.728 79.2188 101.531 78.0218 101.531 76.5469V12.4219C101.531 10.947 102.728 9.75 104.203 9.75H106.875C108.35 9.75 109.547 10.947 109.547 12.4219C109.547 13.8967 108.35 15.0938 106.875 15.0938V73.875C108.35 73.875 109.547 75.072 109.547 76.5469C109.547 78.0218 108.35 79.2188 106.875 79.2188Z" fill="#002A54"/>
<path d="M130.922 119.297C126.503 119.297 122.906 115.701 122.906 111.281C122.906 106.862 126.503 103.266 130.922 103.266C135.341 103.266 138.938 106.862 138.938 111.281C138.938 115.701 135.341 119.297 130.922 119.297ZM130.922 108.609C129.452 108.609 128.25 109.806 128.25 111.281C128.25 112.756 129.452 113.953 130.922 113.953C132.391 113.953 133.594 112.756 133.594 111.281C133.594 109.806 132.391 108.609 130.922 108.609Z" fill="#002A54"/>
<path d="M109.547 119.297C105.128 119.297 101.531 115.701 101.531 111.281C101.531 106.862 105.128 103.266 109.547 103.266C113.966 103.266 117.562 106.862 117.562 111.281C117.562 115.701 113.966 119.297 109.547 119.297ZM109.547 108.609C108.077 108.609 106.875 109.806 106.875 111.281C106.875 112.756 108.077 113.953 109.547 113.953C111.016 113.953 112.219 112.756 112.219 111.281C112.219 109.806 111.016 108.609 109.547 108.609Z" fill="#002A54"/>
<path d="M162.984 100.594H88.1719C86.697 100.594 85.5 99.3967 85.5 97.9219C85.5 96.447 86.697 95.25 88.1719 95.25H162.984C164.459 95.25 165.656 96.447 165.656 97.9219C165.656 99.3967 164.459 100.594 162.984 100.594Z" fill="#002A54"/>
<path d="M66.7969 100.594C65.322 100.594 64.125 99.3967 64.125 97.9219V87.2344C64.125 85.7595 65.322 84.5625 66.7969 84.5625C68.2717 84.5625 69.4688 85.7595 69.4688 87.2344V97.9219C69.4688 99.3967 68.2717 100.594 66.7969 100.594Z" fill="#002A54"/>
<path d="M98.8594 100.594C97.3845 100.594 96.1875 99.3967 96.1875 97.9219V87.2344C96.1875 85.7595 97.3845 84.5625 98.8594 84.5625C100.334 84.5625 101.531 85.7595 101.531 87.2344V97.9219C101.531 99.3967 100.334 100.594 98.8594 100.594Z" fill="#002A54"/>
<path d="M88.1719 103.266C86.697 103.266 85.5 102.069 85.5 100.594V95.25C85.5 93.7751 86.697 92.5781 88.1719 92.5781C89.6467 92.5781 90.8438 93.7751 90.8438 95.25V100.594C90.8438 102.069 89.6467 103.266 88.1719 103.266Z" fill="#002A54"/>
<path d="M162.984 127.312H8.01562C6.54075 127.312 5.34375 126.115 5.34375 124.641C5.34375 123.166 6.54075 121.969 8.01562 121.969H162.984C164.459 121.969 165.656 123.166 165.656 124.641C165.656 126.115 164.459 127.312 162.984 127.312Z" fill="#002A54"/>
<path d="M157.641 132.656C156.166 132.656 154.969 131.459 154.969 129.984V127.312H144.281V129.984C144.281 131.459 143.084 132.656 141.609 132.656C140.135 132.656 138.938 131.459 138.938 129.984V124.641C138.938 123.166 140.135 121.969 141.609 121.969H157.641C159.115 121.969 160.312 123.166 160.312 124.641V129.984C160.312 131.459 159.115 132.656 157.641 132.656Z" fill="#002A54"/>
<path d="M125.578 132.656C124.103 132.656 122.906 131.459 122.906 129.984V127.312H112.219V129.984C112.219 131.459 111.022 132.656 109.547 132.656C108.072 132.656 106.875 131.459 106.875 129.984V124.641C106.875 123.166 108.072 121.969 109.547 121.969H125.578C127.053 121.969 128.25 123.166 128.25 124.641V129.984C128.25 131.459 127.053 132.656 125.578 132.656Z" fill="#002A54"/>
<path d="M93.5156 132.656C92.0408 132.656 90.8438 131.459 90.8438 129.984V127.312H80.1562V129.984C80.1562 131.459 78.9592 132.656 77.4844 132.656C76.0095 132.656 74.8125 131.459 74.8125 129.984V124.641C74.8125 123.166 76.0095 121.969 77.4844 121.969H93.5156C94.9905 121.969 96.1875 123.166 96.1875 124.641V129.984C96.1875 131.459 94.9905 132.656 93.5156 132.656Z" fill="#002A54"/>
<path d="M61.4531 132.656C59.9783 132.656 58.7812 131.459 58.7812 129.984V127.312H48.0938V129.984C48.0938 131.459 46.8967 132.656 45.4219 132.656C43.947 132.656 42.75 131.459 42.75 129.984V124.641C42.75 123.166 43.947 121.969 45.4219 121.969H61.4531C62.928 121.969 64.125 123.166 64.125 124.641V129.984C64.125 131.459 62.928 132.656 61.4531 132.656Z" fill="#002A54"/>
<path d="M29.3906 132.656C27.9158 132.656 26.7188 131.459 26.7188 129.984V127.312H16.0312V129.984C16.0312 131.459 14.8342 132.656 13.3594 132.656C11.8845 132.656 10.6875 131.459 10.6875 129.984V124.641C10.6875 123.166 11.8845 121.969 13.3594 121.969H29.3906C30.8655 121.969 32.0625 123.166 32.0625 124.641V129.984C32.0625 131.459 30.8655 132.656 29.3906 132.656Z" fill="#002A54"/>
</g>
<defs>
<clipPath id="clip0_0_219">
<rect width="171" height="138" fill="white"/>
</clipPath>
</defs>
</svg>
