<svg width="48" height="48" viewBox="0 0 48 48" fill="none" xmlns="http://www.w3.org/2000/svg">
<path fill-rule="evenodd" clip-rule="evenodd" d="M7.18922 42.1134H5.29927C4.10089 42.1134 3.12598 41.1381 3.12598 39.9392V8.06012C3.12598 6.86126 4.10086 5.88696 5.29927 5.88696H7.18922C7.44472 5.88696 7.65181 6.09414 7.65181 6.34953C7.65181 6.60493 7.44469 6.81213 7.18922 6.81213L5.29927 6.8121C4.61096 6.8121 4.05111 7.37206 4.05111 8.06015L4.05114 39.9392C4.05114 40.6283 4.61096 41.1882 5.29927 41.1882H7.18922C7.44472 41.1882 7.65181 41.3954 7.65181 41.6508C7.65181 41.9062 7.44469 42.1134 7.18922 42.1134ZM42.7001 42.1134H19.1882C18.9327 42.1134 18.7256 41.9062 18.7256 41.6508C18.7256 41.3954 18.9327 41.1882 19.1882 41.1882H42.7001C43.3882 41.1882 43.9481 40.6282 43.9481 39.9392L43.9482 8.06012C43.9482 7.37205 43.3882 6.81213 42.7001 6.81213L19.1882 6.8121C18.9327 6.8121 18.7256 6.60495 18.7256 6.34953C18.7256 6.09414 18.9327 5.88696 19.1882 5.88696H42.7001C43.898 5.88696 44.8733 6.86126 44.8733 8.06015V39.9392C44.8733 41.1381 43.898 42.1134 42.7001 42.1134Z" fill="white"/>
<path fill-rule="evenodd" clip-rule="evenodd" d="M8.77474 3.73758C8.15558 3.73758 7.65182 4.24068 7.65182 4.86034V43.1395C7.65182 43.7582 8.15555 44.2622 8.77474 44.2622H17.6029C18.222 44.2622 18.7257 43.7582 18.7257 43.1395L18.7258 4.86034C18.7258 4.24065 18.222 3.73761 17.6029 3.73761L8.77474 3.73758ZM17.6029 45.1874H8.77474C7.64537 45.1874 6.72662 44.2681 6.72662 43.1395L6.72668 4.8604C6.72668 3.73091 7.64537 2.8125 8.77474 2.8125H17.6029C18.7322 2.8125 19.6509 3.73094 19.6509 4.8604V43.1395C19.6509 44.2681 18.7322 45.1874 17.6029 45.1874Z" fill="white"/>
<path fill-rule="evenodd" clip-rule="evenodd" d="M26.215 13.0136C25.9254 13.0136 25.6899 13.2497 25.6899 13.5388L25.69 17.863C25.69 18.1531 25.9254 18.3883 26.2149 18.3883H37.4616C37.7511 18.3883 37.9866 18.1531 37.9866 17.8631V13.5388C37.9866 13.2497 37.7511 13.0136 37.4615 13.0136H26.215ZM37.4616 19.3134H26.215C25.4153 19.3134 24.7646 18.6629 24.7646 17.8631V13.5388C24.7646 12.7389 25.4153 12.0884 26.2149 12.0884L37.4616 12.0884C38.2612 12.0884 38.9117 12.7389 38.9117 13.5388L38.9118 17.863C38.9118 18.6629 38.2611 19.3134 37.4616 19.3134Z" fill="white"/>
<path fill-rule="evenodd" clip-rule="evenodd" d="M26.1056 21.8046C25.8764 21.8046 25.6899 21.9915 25.6899 22.2209C25.69 22.4493 25.8764 22.6363 26.1056 22.6363H27.828C28.0571 22.6363 28.2437 22.4493 28.2437 22.2209C28.2437 21.9915 28.0571 21.8046 27.828 21.8046L26.1056 21.8046ZM27.828 23.5615H26.1056C25.3662 23.5615 24.7646 22.9601 24.7646 22.2209C24.7646 21.4808 25.3662 20.8794 26.1056 20.8794L27.828 20.8794C28.5673 20.8794 29.1689 21.4808 29.1689 22.2209C29.1689 22.9601 28.5673 23.5615 27.828 23.5615Z" fill="white"/>
<path fill-rule="evenodd" clip-rule="evenodd" d="M35.8486 21.8046C35.6194 21.8046 35.4329 21.9915 35.4329 22.2209C35.4329 22.4493 35.6194 22.6363 35.8486 22.6363H37.5709C37.8002 22.6363 37.9866 22.4493 37.9866 22.2209C37.9866 21.9915 37.8001 21.8046 37.5709 21.8046L35.8486 21.8046ZM37.5709 23.5615H35.8486C35.1093 23.5615 34.5078 22.9601 34.5078 22.2209C34.5078 21.4808 35.1092 20.8794 35.8486 20.8794L37.5709 20.8794C38.3104 20.8794 38.9118 21.4808 38.9118 22.2209C38.9118 22.9601 38.3103 23.5615 37.5709 23.5615Z" fill="white"/>
<path fill-rule="evenodd" clip-rule="evenodd" d="M30.9774 21.8046C30.7483 21.8046 30.5618 21.9915 30.5618 22.2209C30.5618 22.4493 30.7483 22.6363 30.9774 22.6363H32.6999C32.9291 22.6363 33.1155 22.4493 33.1155 22.2209C33.1155 21.9915 32.9291 21.8046 32.6999 21.8046L30.9774 21.8046ZM32.6999 23.5615H30.9774C30.2382 23.5615 29.6367 22.9601 29.6367 22.2209C29.6367 21.4808 30.2382 20.8794 30.9774 20.8794L32.6999 20.8794C33.4392 20.8794 34.0406 21.4808 34.0406 22.2209C34.0407 22.9601 33.4392 23.5615 32.6999 23.5615Z" fill="white"/>
<path fill-rule="evenodd" clip-rule="evenodd" d="M26.1056 25.9217C25.8764 25.9217 25.6899 26.1078 25.6899 26.3371C25.69 26.5665 25.8764 26.7525 26.1056 26.7525H27.828C28.0571 26.7525 28.2437 26.5665 28.2437 26.3371C28.2437 26.1077 28.0571 25.9217 27.828 25.9217H26.1056ZM27.828 27.6777H26.1056C25.3662 27.6777 24.7646 27.0763 24.7646 26.3371C24.7646 25.5979 25.3662 24.9966 26.1056 24.9966H27.828C28.5673 24.9966 29.1689 25.5979 29.1689 26.3371C29.1689 27.0763 28.5673 27.6777 27.828 27.6777Z" fill="white"/>
<path fill-rule="evenodd" clip-rule="evenodd" d="M35.8486 25.9217C35.6194 25.9217 35.4329 26.1078 35.4329 26.3371C35.4329 26.5665 35.6194 26.7525 35.8486 26.7525H37.5709C37.8002 26.7525 37.9866 26.5665 37.9866 26.3371C37.9866 26.1077 37.8001 25.9217 37.5709 25.9217H35.8486ZM37.5709 27.6777H35.8486C35.1093 27.6777 34.5078 27.0763 34.5078 26.3371C34.5078 25.5979 35.1092 24.9966 35.8486 24.9966H37.5709C38.3104 24.9966 38.9118 25.5979 38.9118 26.3371C38.9118 27.0763 38.3103 27.6777 37.5709 27.6777Z" fill="white"/>
<path fill-rule="evenodd" clip-rule="evenodd" d="M30.9774 25.9217C30.7483 25.9217 30.5618 26.1078 30.5618 26.3371C30.5618 26.5665 30.7483 26.7525 30.9774 26.7525H32.6999C32.9291 26.7525 33.1155 26.5665 33.1155 26.3371C33.1155 26.1077 32.9291 25.9217 32.6999 25.9217H30.9774ZM32.6999 27.6777H30.9774C30.2382 27.6777 29.6367 27.0763 29.6367 26.3371C29.6367 25.5979 30.2382 24.9966 30.9774 24.9966H32.6999C33.4392 24.9966 34.0406 25.5979 34.0406 26.3371C34.0407 27.0763 33.4392 27.6777 32.6999 27.6777Z" fill="white"/>
<path fill-rule="evenodd" clip-rule="evenodd" d="M26.1056 30.038C25.8764 30.038 25.6899 30.225 25.6899 30.4533C25.69 30.6827 25.8764 30.8697 26.1056 30.8697L27.828 30.8696C28.0571 30.8696 28.2437 30.6827 28.2437 30.4533C28.2437 30.225 28.0571 30.038 27.828 30.038H26.1056ZM27.828 31.7948H26.1056C25.3662 31.7948 24.7646 31.1935 24.7646 30.4533C24.7646 29.7141 25.3662 29.1128 26.1056 29.1128H27.828C28.5673 29.1128 29.1689 29.7142 29.1689 30.4533C29.1689 31.1935 28.5673 31.7948 27.828 31.7948Z" fill="white"/>
<path fill-rule="evenodd" clip-rule="evenodd" d="M35.8486 30.038C35.6194 30.038 35.4329 30.225 35.4329 30.4533C35.4329 30.6827 35.6194 30.8697 35.8486 30.8697L37.5709 30.8696C37.8002 30.8696 37.9866 30.6827 37.9866 30.4533C37.9866 30.225 37.8001 30.038 37.5709 30.038H35.8486ZM37.5709 31.7948H35.8486C35.1093 31.7948 34.5078 31.1935 34.5078 30.4533C34.5078 29.7141 35.1092 29.1128 35.8486 29.1128H37.5709C38.3104 29.1128 38.9118 29.7142 38.9118 30.4533C38.9118 31.1935 38.3103 31.7948 37.5709 31.7948Z" fill="white"/>
<path fill-rule="evenodd" clip-rule="evenodd" d="M30.9774 30.038C30.7483 30.038 30.5618 30.225 30.5618 30.4533C30.5618 30.6827 30.7483 30.8697 30.9774 30.8697L32.6999 30.8696C32.9291 30.8696 33.1155 30.6827 33.1155 30.4533C33.1155 30.225 32.9291 30.038 32.6999 30.038H30.9774ZM32.6999 31.7948H30.9774C30.2382 31.7948 29.6367 31.1935 29.6367 30.4533C29.6367 29.7141 30.2382 29.1128 30.9774 29.1128H32.6999C33.4392 29.1128 34.0406 29.7142 34.0406 30.4533C34.0407 31.1935 33.4392 31.7948 32.6999 31.7948Z" fill="white"/>
<path fill-rule="evenodd" clip-rule="evenodd" d="M26.1056 34.1549C25.8764 34.1549 25.6899 34.3409 25.6899 34.5703C25.69 34.7996 25.8764 34.9856 26.1056 34.9856H27.828C28.0571 34.9856 28.2437 34.7996 28.2437 34.5703C28.2437 34.3409 28.0571 34.1549 27.828 34.1549H26.1056ZM27.828 35.9108H26.1056C25.3662 35.9108 24.7646 35.3094 24.7646 34.5703C24.7646 33.8311 25.3662 33.2297 26.1056 33.2297H27.828C28.5673 33.2297 29.1689 33.8311 29.1689 34.5703C29.1689 35.3094 28.5673 35.9108 27.828 35.9108Z" fill="white"/>
<path fill-rule="evenodd" clip-rule="evenodd" d="M35.8486 34.1549C35.6194 34.1549 35.4329 34.3409 35.4329 34.5703C35.4329 34.7996 35.6194 34.9856 35.8486 34.9856H37.5709C37.8002 34.9856 37.9866 34.7996 37.9866 34.5703C37.9866 34.3409 37.8001 34.1549 37.5709 34.1549H35.8486ZM37.5709 35.9108H35.8486C35.1093 35.9108 34.5078 35.3094 34.5078 34.5703C34.5078 33.8311 35.1092 33.2297 35.8486 33.2297H37.5709C38.3104 33.2297 38.9118 33.8311 38.9118 34.5703C38.9118 35.3094 38.3103 35.9108 37.5709 35.9108Z" fill="white"/>
<path fill-rule="evenodd" clip-rule="evenodd" d="M30.9774 34.1549C30.7483 34.1549 30.5618 34.3409 30.5618 34.5703C30.5618 34.7996 30.7483 34.9856 30.9774 34.9856H32.6999C32.9291 34.9856 33.1155 34.7996 33.1155 34.5703C33.1155 34.3409 32.9291 34.1549 32.6999 34.1549H30.9774ZM32.6999 35.9108H30.9774C30.2382 35.9108 29.6367 35.3094 29.6367 34.5703C29.6367 33.8311 30.2382 33.2297 30.9774 33.2297H32.6999C33.4392 33.2297 34.0406 33.8311 34.0406 34.5703C34.0407 35.3094 33.4392 35.9108 32.6999 35.9108Z" fill="white"/>
</svg>
