<svg width="223" height="153" viewBox="0 0 223 153" fill="none" xmlns="http://www.w3.org/2000/svg">
<path d="M222.103 82.961L219.668 78.5608C219.454 78.219 219.326 77.8345 219.283 77.4073L217.275 54.0393V53.3131C216.934 49.8955 214.285 47.1614 210.867 46.7769L169.984 42.1204C166.011 41.6932 162.465 44.5127 161.995 48.4857C161.953 48.742 161.953 49.0411 161.953 49.2974V100.733H160.073V38.7027C160.073 36.6522 158.449 35.0288 156.399 34.9861H3.71666C1.66609 34.9861 0 36.6522 0 38.7027V101.459C0 103.04 0.982566 104.449 2.47778 104.962V112.737C2.47778 116.326 4.65651 119.572 7.94597 120.982C9.01398 128.8 16.2337 134.268 24.0515 133.2C30.1605 132.346 35.0306 127.732 36.1841 121.708H37.9783C39.4735 129.483 46.9923 134.524 54.7674 133.029C60.6201 131.876 65.1484 127.262 66.131 121.409C70.104 120.384 72.8808 116.838 72.8808 112.737V105.176H91.8059V112.737C91.8059 116.924 94.7108 120.555 98.812 121.495C100.179 129.27 107.612 134.482 115.387 133.115C121.24 132.089 125.854 127.561 126.965 121.708H128.802C130.297 129.483 137.773 134.567 145.548 133.072C151.315 131.961 155.801 127.476 156.912 121.708H181.048C182.544 129.483 190.02 134.567 197.795 133.072C203.562 131.961 208.048 127.476 209.158 121.708H215.737C219.71 121.708 222.957 118.462 222.957 114.489V86.464C222.957 85.2252 222.658 84.029 222.103 82.961ZM214.627 73.1353H184.295V58.3114H213.345L214.114 67.3253L214.627 73.1353ZM37.8074 117.436H36.3549C35.7569 111.669 31.7412 106.799 26.1448 105.176H48.0176C42.4212 106.799 38.4055 111.669 37.8074 117.436ZM6.7498 105.176H18.0707C12.987 106.671 9.18486 110.815 8.07413 115.984C7.21973 115.129 6.7498 113.933 6.7498 112.737V105.176ZM22.1291 128.971C17.6435 128.971 13.7132 126.023 12.4743 121.708C12.218 120.811 12.0471 119.829 12.0471 118.889C12.0471 118.419 12.0898 117.906 12.1753 117.436C12.987 111.968 18.0707 108.166 23.5816 108.978C27.9818 109.618 31.3994 113.079 32.0402 117.436C32.1256 117.906 32.1684 118.419 32.1684 118.889C32.1684 119.829 32.0402 120.811 31.7839 121.708C30.545 126.023 26.6147 128.971 22.1291 128.971ZM52.0333 128.971C47.5477 128.971 43.6174 126.023 42.3785 121.708C42.1222 120.811 41.994 119.829 41.994 118.889C41.994 118.419 42.0367 117.906 42.0795 117.436C42.9766 111.925 48.1457 108.209 53.6567 109.106C57.9714 109.789 61.3036 113.164 61.9871 117.436C62.0726 117.906 62.1153 118.419 62.1153 118.889C62.1153 119.829 61.9444 120.811 61.6881 121.708C60.4492 126.023 56.5189 128.971 52.0333 128.971ZM68.6087 112.737C68.6087 114.446 67.6689 115.984 66.2164 116.838C65.4047 111.285 61.4745 106.756 56.0917 105.176H68.6087V112.737ZM72.8808 100.904V100.733H4.27203V39.2581H155.801V100.733H91.8059V100.904H72.8808ZM128.588 117.436H127.178C126.58 111.669 122.564 106.799 116.968 105.176H138.798C133.245 106.842 129.229 111.669 128.588 117.436ZM96.0779 112.737V105.176H108.894C103.468 106.756 99.4955 111.37 98.7265 116.966C97.1032 116.197 96.0779 114.531 96.0779 112.737ZM112.91 128.971C108.424 128.971 104.494 126.023 103.255 121.708C102.999 120.811 102.87 119.829 102.87 118.889C102.87 118.419 102.913 117.906 102.999 117.436C103.81 111.968 108.894 108.166 114.405 108.978C118.805 109.618 122.223 113.079 122.863 117.436C122.949 117.906 122.992 118.419 122.992 118.889C122.992 119.829 122.821 120.811 122.564 121.708C121.326 126.023 117.395 128.971 112.91 128.971ZM142.857 128.971C138.371 128.971 134.441 126.023 133.202 121.708C132.945 120.811 132.817 119.829 132.817 118.889C132.817 118.419 132.86 117.906 132.903 117.436C133.8 111.925 138.969 108.209 144.48 109.106C148.795 109.789 152.127 113.164 152.81 117.436C152.853 117.906 152.896 118.419 152.896 118.889C152.896 119.829 152.768 120.811 152.511 121.708C151.272 126.023 147.342 128.971 142.857 128.971ZM157.125 117.436C156.527 111.669 152.511 106.799 146.915 105.176H156.399C156.741 105.176 157.082 105.09 157.424 105.005H161.953V114.489C161.953 115.514 162.166 116.496 162.593 117.436H157.125ZM195.103 128.971C190.618 128.971 186.688 126.023 185.449 121.708C185.192 120.811 185.064 119.829 185.064 118.889C185.064 118.419 185.107 117.906 185.15 117.436C186.047 111.925 191.216 108.209 196.727 109.106C201.042 109.789 204.374 113.164 205.057 117.436C205.143 117.906 205.143 118.419 205.143 118.889C205.143 119.829 205.015 120.811 204.758 121.708C203.519 126.023 199.589 128.971 195.103 128.971ZM218.685 114.489C218.685 116.112 217.361 117.436 215.737 117.436H209.372C208.646 109.576 201.64 103.808 193.779 104.535C186.944 105.176 181.518 110.601 180.878 117.436H169.172C168.361 117.436 167.592 117.095 167.036 116.496C166.524 115.941 166.225 115.258 166.225 114.489V49.2974C166.225 48.443 166.566 47.6313 167.207 47.0759C167.762 46.606 168.446 46.3497 169.172 46.3497H169.514L210.355 51.0062C211.764 51.1771 212.832 52.2878 212.961 53.6976V54.0393H182.971C181.348 54.0393 180.023 55.3637 180.023 56.987V74.4169C179.98 76.0403 181.305 77.3646 182.928 77.4073H182.971H215.011V77.7491C215.097 78.7317 215.396 79.7142 215.866 80.6114L218.301 85.0543C218.557 85.4815 218.685 85.9514 218.685 86.464V114.489Z" fill="#002A54"/>
<path d="M137.132 43.402H142.771V94.4954H137.132V43.402Z" fill="#002A54"/>
<path d="M119.147 43.402H124.787V94.4954H119.147V43.402Z" fill="#002A54"/>
<path d="M101.161 43.402H106.8V94.4954H101.161V43.402Z" fill="#002A54"/>
<path d="M83.2188 43.402H88.8578V94.4954H83.2188V43.402Z" fill="#002A54"/>
<path d="M65.2344 43.402H70.8735V94.4954H65.2344V43.402Z" fill="#002A54"/>
<path d="M47.249 43.402H52.8881V94.4954H47.249V43.402Z" fill="#002A54"/>
<path d="M29.2637 43.402H34.9027V94.4954H29.2637V43.402Z" fill="#002A54"/>
<path d="M11.2782 43.402H16.9173V94.4954H11.2782V43.402Z" fill="#002A54"/>
</svg>
